<svg viewBox="0 0 24 24" fill="none" xmlns="http://www.w3.org/2000/svg">
    <g clip-path="url(#clip0_358_96)" filter="url(#filter0_d_358_96)">
        <path
            d="M12 16C16.4183 16 20 12.4183 20 8C20 3.58172 16.4183 0 12 0C7.58172 0 4 3.58172 4 8C4 12.4183 7.58172 16 12 16Z"
            fill="#6DA544" />
        <path d="M12 3.13037L18.6087 7.99993L12 12.8695L5.39131 7.99993L12 3.13037Z" fill="#FFDA44" />
        <path
            d="M12 10.7825C13.5368 10.7825 14.7826 9.53666 14.7826 7.99988C14.7826 6.46309 13.5368 5.21729 12 5.21729C10.4632 5.21729 9.21741 6.46309 9.21741 7.99988C9.21741 9.53666 10.4632 10.7825 12 10.7825Z"
            fill="#F0F0F0" />
        <path
            d="M10.6087 7.82593C10.1248 7.82593 9.65784 7.89952 9.21828 8.03608C9.23775 9.55608 10.4754 10.7825 12 10.7825C12.9427 10.7825 13.7754 10.3132 14.2787 9.59596C13.4176 8.51793 12.0925 7.82593 10.6087 7.82593Z"
            fill="#0052B4" />
        <path
            d="M14.731 8.533C14.7645 8.36038 14.7826 8.18228 14.7826 7.99988C14.7826 6.46307 13.5368 5.21729 12 5.21729C10.8533 5.21729 9.86896 5.91107 9.44296 6.90163C9.81953 6.8236 10.2094 6.7825 10.6087 6.7825C12.2249 6.78247 13.687 7.45428 14.731 8.533Z"
            fill="#0052B4" />
    </g>
    <defs>
        <filter id="filter0_d_358_96" x="0" y="0" filterUnits="userSpaceOnUse" color-interpolation-filters="sRGB">
            <feFlood flood-opacity="0" result="BackgroundImageFix" />
            <feColorMatrix in="SourceAlpha" type="matrix" values="0 0 0 0 0 0 0 0 0 0 0 0 0 0 0 0 0 0 127 0"
                result="hardAlpha" />
            <feOffset dy="4" />
            <feGaussianBlur stdDeviation="2" />
            <feComposite in2="hardAlpha" operator="out" />
            <feColorMatrix type="matrix" values="0 0 0 0 0 0 0 0 0 0 0 0 0 0 0 0 0 0 0.25 0" />
            <feBlend mode="normal" in2="BackgroundImageFix" result="effect1_dropShadow_358_96" />
            <feBlend mode="normal" in="SourceGraphic" in2="effect1_dropShadow_358_96" result="shape" />
        </filter>
        <clipPath id="clip0_358_96">
            <rect width="24" height="24" fill="white" transform="translate(4)" />
        </clipPath>
    </defs>
</svg>