<svg viewBox="0 0 728 187" fill="none" xmlns="http://www.w3.org/2000/svg">
    <defs>
        <linearGradient id="gradient-1">
            <stop offset="0" stop-color="#6828EB">
                <animate attributeName="stop-color" values="#6828EB;#FFBE59;#6828EB" dur="3s" repeatCount="indefinite">
                </animate>
            </stop>
            <stop offset="50%" stop-color="#FFBE59">
                <animate attributeName="offset" values=".5;.2;.5" dur="3.1500000000000004s" repeatCount="indefinite">
                </animate>
            </stop>
            <stop offset="100%" stop-color="#FFAB28">
                <animate attributeName="offset" values="1;.9;1" dur="3.1500000000000004s" repeatCount="indefinite">
                </animate>
                <animate attributeName="stop-color" values="#FFAB28;#6828EB;#FFAB28" dur="3.1500000000000004s"
                    repeatCount="indefinite"></animate>
            </stop>
            <animateTransform attributeName="gradientTransform" type="rotate" from="0 .5 .5" to="360 .5 .5" dur="5.4s"
                repeatCount="indefinite"></animateTransform>
        </linearGradient>
    </defs>
    <rect x="0" y="0" width="100%" height="100%" fill="url(#gradient-1)" mask="url(#logo-1)"></rect>
    <mask id="logo-1">
        <path
            d="M4.64779 36.436C1.83979 33.7 0.435791 30.298 0.435791 26.23C0.435791 22.162 1.83979 18.76 4.64779 16.024C7.45579 13.252 10.9298 11.866 15.0698 11.866C18.0578 11.866 20.7218 12.64 23.0618 14.188C25.4378 15.736 27.1838 17.86 28.2998 20.56L23.0618 22.342C22.3418 20.722 21.2798 19.444 19.8758 18.508C18.4718 17.572 16.8698 17.104 15.0698 17.104C12.5858 17.104 10.4978 17.986 8.80579 19.75C7.11379 21.478 6.26779 23.638 6.26779 26.23C6.26779 28.822 7.11379 30.982 8.80579 32.71C10.4978 34.438 12.5858 35.302 15.0698 35.302C16.8698 35.302 18.4718 34.852 19.8758 33.952C21.3158 33.016 22.3778 31.72 23.0618 30.064L28.2998 31.846C27.1838 34.546 25.4378 36.67 23.0618 38.218C20.7218 39.766 18.0578 40.54 15.0698 40.54C10.9298 40.54 7.45579 39.172 4.64779 36.436Z"
            fill="white" />
        <path
            d="M35.1029 36.436C32.2949 33.7 30.8909 30.298 30.8909 26.23C30.8909 22.162 32.2949 18.76 35.1029 16.024C37.9109 13.252 41.3849 11.866 45.5249 11.866C49.6649 11.866 53.1389 13.252 55.9469 16.024C58.7549 18.76 60.159 22.162 60.159 26.23C60.159 30.298 58.7549 33.7 55.9469 36.436C53.1389 39.172 49.6649 40.54 45.5249 40.54C41.3849 40.54 37.9109 39.172 35.1029 36.436ZM39.2609 19.75C37.5689 21.478 36.7229 23.638 36.7229 26.23C36.7229 28.822 37.5689 30.982 39.2609 32.71C40.9529 34.438 43.0409 35.302 45.5249 35.302C48.0449 35.302 50.1329 34.438 51.7889 32.71C53.4809 30.982 54.327 28.822 54.327 26.23C54.327 23.602 53.4809 21.424 51.7889 19.696C50.1329 17.968 48.0449 17.104 45.5249 17.104C43.0409 17.104 40.9529 17.986 39.2609 19.75Z"
            fill="white" />
        <path d="M70.0473 40H64.3773V0.0400391H70.0473V40Z" fill="white" />
        <path
            d="M86.6607 11.866C89.9727 11.866 92.6727 12.73 94.7607 14.458C96.8487 16.186 97.8927 18.67 97.8927 21.91V40H92.2227V32.656C90.5307 37.912 87.1287 40.54 82.0167 40.54C79.6407 40.54 77.6607 39.838 76.0767 38.434C74.4927 36.994 73.7007 35.122 73.7007 32.818C73.7007 30.118 74.6547 28.102 76.5627 26.77C78.4707 25.402 80.9007 24.556 83.8527 24.232L89.1987 23.692C91.2147 23.512 92.2227 22.612 92.2227 20.992C92.2227 19.66 91.7007 18.598 90.6567 17.806C89.6487 17.014 88.3167 16.618 86.6607 16.618C84.9687 16.618 83.5287 17.05 82.3407 17.914C81.1887 18.778 80.4507 20.038 80.1267 21.694L74.5107 20.344C75.0147 17.752 76.3647 15.7 78.5607 14.188C80.7567 12.64 83.4567 11.866 86.6607 11.866ZM83.8527 35.95C86.1927 35.95 88.1727 35.176 89.7927 33.628C91.4127 32.044 92.2227 30.208 92.2227 28.12V26.608C91.7907 27.328 90.7467 27.778 89.0907 27.958L83.8527 28.606C82.4847 28.786 81.3867 29.2 80.5587 29.848C79.7667 30.46 79.3707 31.306 79.3707 32.386C79.3707 33.466 79.7667 34.33 80.5587 34.978C81.3867 35.626 82.4847 35.95 83.8527 35.95Z"
            fill="white" />
        <path
            d="M119.56 11.866C123.124 11.866 126.094 13.252 128.47 16.024C130.846 18.76 132.034 22.162 132.034 26.23C132.034 30.298 130.846 33.7 128.47 36.436C126.094 39.172 123.124 40.54 119.56 40.54C116.968 40.54 114.7 39.784 112.756 38.272C110.848 36.724 109.462 34.636 108.598 32.008V40H102.928V0.0400391H108.598V20.398C109.462 17.77 110.848 15.7 112.756 14.188C114.7 12.64 116.968 11.866 119.56 11.866ZM117.67 35.302C120.046 35.302 122.044 34.438 123.664 32.71C125.32 30.946 126.148 28.786 126.148 26.23C126.148 23.638 125.32 21.478 123.664 19.75C122.044 17.986 120.046 17.104 117.67 17.104C115.042 17.104 112.864 17.968 111.136 19.696C109.444 21.424 108.598 23.602 108.598 26.23C108.598 28.822 109.444 30.982 111.136 32.71C112.864 34.438 115.042 35.302 117.67 35.302Z"
            fill="white" />
        <path
            d="M139.099 36.436C136.291 33.7 134.887 30.298 134.887 26.23C134.887 22.162 136.291 18.76 139.099 16.024C141.907 13.252 145.381 11.866 149.521 11.866C153.661 11.866 157.135 13.252 159.943 16.024C162.751 18.76 164.155 22.162 164.155 26.23C164.155 30.298 162.751 33.7 159.943 36.436C157.135 39.172 153.661 40.54 149.521 40.54C145.381 40.54 141.907 39.172 139.099 36.436ZM143.257 19.75C141.565 21.478 140.719 23.638 140.719 26.23C140.719 28.822 141.565 30.982 143.257 32.71C144.949 34.438 147.037 35.302 149.521 35.302C152.041 35.302 154.129 34.438 155.785 32.71C157.477 30.982 158.323 28.822 158.323 26.23C158.323 23.602 157.477 21.424 155.785 19.696C154.129 17.968 152.041 17.104 149.521 17.104C147.037 17.104 144.949 17.986 143.257 19.75Z"
            fill="white" />
        <path
            d="M174.044 12.406V19.696C174.944 16.42 176.348 14.206 178.256 13.054C180.2 11.902 182.396 11.614 184.844 12.19V17.59C181.856 16.762 179.3 17.032 177.176 18.4C175.088 19.732 174.044 21.73 174.044 24.394V40H168.374V12.406H174.044Z"
            fill="white" />
        <path
            d="M197.776 11.866C201.088 11.866 203.788 12.73 205.876 14.458C207.964 16.186 209.008 18.67 209.008 21.91V40H203.338V32.656C201.646 37.912 198.244 40.54 193.132 40.54C190.756 40.54 188.776 39.838 187.192 38.434C185.608 36.994 184.816 35.122 184.816 32.818C184.816 30.118 185.77 28.102 187.678 26.77C189.586 25.402 192.016 24.556 194.968 24.232L200.314 23.692C202.33 23.512 203.338 22.612 203.338 20.992C203.338 19.66 202.816 18.598 201.772 17.806C200.764 17.014 199.432 16.618 197.776 16.618C196.084 16.618 194.644 17.05 193.456 17.914C192.304 18.778 191.566 20.038 191.242 21.694L185.626 20.344C186.13 17.752 187.48 15.7 189.676 14.188C191.872 12.64 194.572 11.866 197.776 11.866ZM194.968 35.95C197.308 35.95 199.288 35.176 200.908 33.628C202.528 32.044 203.338 30.208 203.338 28.12V26.608C202.906 27.328 201.862 27.778 200.206 27.958L194.968 28.606C193.6 28.786 192.502 29.2 191.674 29.848C190.882 30.46 190.486 31.306 190.486 32.386C190.486 33.466 190.882 34.33 191.674 34.978C192.502 35.626 193.6 35.95 194.968 35.95Z"
            fill="white" />
        <path
            d="M227.598 35.302C229.398 35.302 231 34.852 232.404 33.952C233.844 33.016 234.906 31.72 235.59 30.064L240.828 31.846C239.82 34.294 238.272 36.274 236.184 37.786C234.132 39.298 231.792 40.198 229.164 40.486C230.46 41.098 231.432 41.872 232.08 42.808C232.764 43.744 233.106 44.734 233.106 45.778C233.106 47.29 232.422 48.586 231.054 49.666C229.722 50.782 227.868 51.34 225.492 51.34C224.34 51.34 223.188 51.196 222.036 50.908L222.63 46.318C223.494 46.462 224.07 46.534 224.358 46.534C225.402 46.534 226.212 46.282 226.788 45.778C227.4 45.31 227.706 44.68 227.706 43.888C227.706 42.664 227.076 41.512 225.816 40.432C222.072 40.036 218.994 38.506 216.582 35.842C214.17 33.178 212.964 29.974 212.964 26.23C212.964 22.162 214.368 18.76 217.176 16.024C219.984 13.252 223.458 11.866 227.598 11.866C230.586 11.866 233.25 12.64 235.59 14.188C237.966 15.736 239.712 17.86 240.828 20.56L235.59 22.342C234.87 20.722 233.808 19.444 232.404 18.508C231 17.572 229.398 17.104 227.598 17.104C225.114 17.104 223.026 17.986 221.334 19.75C219.642 21.478 218.796 23.638 218.796 26.23C218.796 28.822 219.642 30.982 221.334 32.71C223.026 34.438 225.114 35.302 227.598 35.302Z"
            fill="white" />
        <path
            d="M252.107 5.22404C250.775 5.22404 249.821 6.01604 249.245 7.60004L245.519 5.81804C245.951 4.27004 246.761 3.02804 247.949 2.09204C249.137 1.12004 250.523 0.634038 252.107 0.634038C253.259 0.634038 254.303 0.904038 255.239 1.44404C256.175 1.94804 256.985 2.47004 257.669 3.01004C258.353 3.51404 259.001 3.76604 259.613 3.76604C260.909 3.76604 261.881 2.95604 262.529 1.33604L266.201 3.11804C265.769 4.66604 264.959 5.92604 263.771 6.89804C262.583 7.83404 261.197 8.30204 259.613 8.30204C258.461 8.30204 257.417 8.05004 256.481 7.54604C255.581 7.00604 254.771 6.48404 254.051 5.98004C253.367 5.47604 252.719 5.22404 252.107 5.22404ZM256.103 11.866C259.415 11.866 262.115 12.73 264.203 14.458C266.291 16.186 267.335 18.67 267.335 21.91V40H261.665V32.656C259.973 37.912 256.571 40.54 251.459 40.54C249.083 40.54 247.103 39.838 245.519 38.434C243.935 36.994 243.143 35.122 243.143 32.818C243.143 30.118 244.097 28.102 246.005 26.77C247.913 25.402 250.343 24.556 253.295 24.232L258.641 23.692C260.657 23.512 261.665 22.612 261.665 20.992C261.665 19.66 261.143 18.598 260.099 17.806C259.091 17.014 257.759 16.618 256.103 16.618C254.411 16.618 252.971 17.05 251.783 17.914C250.631 18.778 249.893 20.038 249.569 21.694L243.953 20.344C244.457 17.752 245.807 15.7 248.003 14.188C250.199 12.64 252.899 11.866 256.103 11.866ZM253.295 35.95C255.635 35.95 257.615 35.176 259.235 33.628C260.855 32.044 261.665 30.208 261.665 28.12V26.608C261.233 27.328 260.189 27.778 258.533 27.958L253.295 28.606C251.927 28.786 250.829 29.2 250.001 29.848C249.209 30.46 248.813 31.306 248.813 32.386C248.813 33.466 249.209 34.33 250.001 34.978C250.829 35.626 251.927 35.95 253.295 35.95Z"
            fill="white" />
        <path
            d="M275.502 36.436C272.694 33.7 271.29 30.298 271.29 26.23C271.29 22.162 272.694 18.76 275.502 16.024C278.31 13.252 281.784 11.866 285.924 11.866C290.064 11.866 293.538 13.252 296.346 16.024C299.154 18.76 300.558 22.162 300.558 26.23C300.558 30.298 299.154 33.7 296.346 36.436C293.538 39.172 290.064 40.54 285.924 40.54C281.784 40.54 278.31 39.172 275.502 36.436ZM279.66 19.75C277.968 21.478 277.122 23.638 277.122 26.23C277.122 28.822 277.968 30.982 279.66 32.71C281.352 34.438 283.44 35.302 285.924 35.302C288.444 35.302 290.532 34.438 292.188 32.71C293.88 30.982 294.726 28.822 294.726 26.23C294.726 23.602 293.88 21.424 292.188 19.696C290.532 17.968 288.444 17.104 285.924 17.104C283.44 17.104 281.352 17.986 279.66 19.75Z"
            fill="white" />
    </mask>
</svg>