<svg width="18" height="18" viewBox="0 0 18 18" fill="none" xmlns="http://www.w3.org/2000/svg">
    <path
        d="M9.00007 -0.00012207C4.05673 -0.00012207 0 4.05661 0 8.99995C0 13.2183 2.96001 17.0502 6.89068 18V15.0224C6.50121 15.1077 6.14278 15.1102 5.74631 14.9933C5.21443 14.8363 4.78225 14.482 4.46144 13.9418C4.25696 13.5968 3.89455 13.2227 3.51648 13.2502L3.42378 12.1996C4.2413 12.1296 4.94855 12.6977 5.36837 13.403C5.55487 13.7167 5.76951 13.9006 6.045 13.9819C6.31128 14.0603 6.5972 14.0227 6.93037 13.905C7.014 13.238 7.31956 12.9883 7.55041 12.6367V12.6362C5.20619 12.2865 4.27193 11.0429 3.90114 10.0612C3.40977 8.75783 3.67344 7.12951 4.54233 6.1005C4.55922 6.08044 4.58971 6.02798 4.5779 5.99132C4.17951 4.78789 4.66497 3.79239 4.68282 3.68678C5.1426 3.82274 5.21731 3.55 6.68001 4.43866L6.93284 4.59055C7.03858 4.65358 7.00535 4.6176 7.11109 4.60964C7.7218 4.44374 8.3656 4.35215 8.99993 4.34391C9.63907 4.35215 10.2787 4.44374 10.9147 4.61637L10.9966 4.62461C10.9894 4.62351 11.0188 4.61939 11.0681 4.59C12.8953 3.48326 12.8297 3.84498 13.3197 3.68568C13.3374 3.79143 13.8164 4.80314 13.4222 5.99132C13.3691 6.15501 15.0063 7.65425 14.0989 10.0608C13.7281 11.0429 12.794 12.2865 10.4497 12.6362V12.6367C10.7502 13.0947 11.1112 13.3383 11.1093 14.2832V18C15.0401 17.0502 18 13.2183 18 8.99995C18.0001 4.05661 13.9434 -0.00012207 9.00007 -0.00012207Z"
        fill="white" />
</svg>