<svg width="458" height="158" viewBox="0 0 458 158" fill="none" xmlns="http://www.w3.org/2000/svg">
<path d="M183.377 47.19V64.5C185.517 56.72 188.867 51.4699 193.437 48.7299C198.007 45.9899 203.197 45.31 209.017 46.68V59.5C201.927 57.54 195.877 58.1499 190.877 61.3599C185.877 64.5699 183.377 69.33 183.377 75.66V112.71H169.917V47.19H183.377Z" fill="white"/>
<path d="M221.057 39.24C219.387 37.62 218.557 35.65 218.557 33.34C218.557 31.03 219.387 29.07 221.057 27.44C222.727 25.81 224.708 25 227.018 25C229.328 25 231.287 25.81 232.917 27.44C234.537 29.06 235.357 31.03 235.357 33.34C235.357 35.65 234.547 37.61 232.917 39.24C231.287 40.87 229.328 41.68 227.018 41.68C224.708 41.68 222.727 40.87 221.057 39.24ZM233.688 112.69H220.227V47.19H233.688V112.7V112.69Z" fill="white"/>
<path d="M254.968 102.95C248.298 96.4601 244.968 88.3801 244.968 78.7201C244.968 69.0601 248.298 60.9701 254.968 54.4301C261.638 47.8901 269.878 44.6201 279.708 44.6201C286.798 44.6201 293.148 46.4601 298.748 50.1301C304.348 53.8101 308.468 58.8501 311.118 65.2601L298.678 69.4901C296.968 65.6501 294.448 62.6101 291.118 60.3901C287.788 58.1701 283.978 57.0601 279.708 57.0601C273.808 57.0601 268.858 59.1301 264.838 63.2801C260.818 67.4301 258.808 72.5701 258.808 78.7301C258.808 84.8901 260.818 90.0101 264.838 94.1201C268.858 98.2201 273.808 100.27 279.708 100.27C283.978 100.27 287.808 99.1801 291.178 97.0001C294.548 94.8201 297.048 91.7701 298.678 87.8301L311.118 92.0601C308.468 98.4701 304.338 103.51 298.748 107.19C293.148 110.87 286.808 112.7 279.708 112.7C269.878 112.7 261.628 109.45 254.968 102.96V102.95Z" fill="white"/>
<path d="M326.627 102.95C319.957 96.4601 316.627 88.3801 316.627 78.7201C316.627 69.0601 319.957 60.9701 326.627 54.4301C333.297 47.8901 341.537 44.6201 351.367 44.6201C358.457 44.6201 364.807 46.4601 370.407 50.1301C376.007 53.8101 380.127 58.8501 382.777 65.2601L370.347 69.4901C368.637 65.6501 366.117 62.6101 362.777 60.3901C359.447 58.1701 355.637 57.0601 351.367 57.0601C345.467 57.0601 340.507 59.1301 336.497 63.2801C332.477 67.4301 330.477 72.5701 330.477 78.7301C330.477 84.8901 332.487 90.0101 336.497 94.1201C340.517 98.2201 345.467 100.27 351.367 100.27C355.637 100.27 359.457 99.1801 362.837 97.0001C366.217 94.8201 368.717 91.7701 370.337 87.8301L382.767 92.0601C380.117 98.4701 375.997 103.51 370.397 107.19C364.797 110.87 358.457 112.7 351.357 112.7C341.527 112.7 333.277 109.45 326.617 102.96L326.627 102.95Z" fill="white"/>
<path d="M398.287 102.95C391.617 96.4601 388.287 88.3801 388.287 78.7201C388.287 69.0601 391.617 60.9701 398.287 54.4301C404.957 47.8901 413.197 44.6201 423.027 44.6201C432.857 44.6201 441.097 47.8901 447.767 54.4301C454.437 60.9701 457.767 69.0701 457.767 78.7201C457.767 88.3701 454.437 96.4601 447.767 102.95C441.097 109.45 432.857 112.69 423.027 112.69C413.197 112.69 404.947 109.44 398.287 102.95ZM408.157 63.2701C404.137 67.4201 402.137 72.5601 402.137 78.7201C402.137 84.8801 404.147 90.0001 408.157 94.1101C412.167 98.2201 417.127 100.26 423.027 100.26C428.927 100.26 433.987 98.2101 437.957 94.1101C441.927 90.0101 443.917 84.8801 443.917 78.7201C443.917 72.5601 441.927 67.3101 437.957 63.2101C433.977 59.1101 428.997 57.0601 423.027 57.0601C417.057 57.0601 412.167 59.1301 408.157 63.2801V63.2701Z" fill="white"/>
<g filter="url(#filter0_d_382_782)">
<rect x="19" y="10" width="118.918" height="120.227" rx="27.3965" fill="white"/>
<rect x="19.5708" y="10.5708" width="117.776" height="119.085" rx="26.8257" stroke="url(#paint0_linear_382_782)" stroke-width="1.14152"/>
<path d="M95.773 41.312L98.7013 45.4696C99.3855 46.4379 99.2348 47.9107 98.336 49.0646L61.1443 98.9145L58.2276 94.7686C57.5434 93.7944 57.6941 92.31 58.5929 91.1503L95.773 41.312Z" fill="url(#paint1_radial_382_782)"/>
<path d="M50.3997 62.9462L60.5239 82.2321L64.1422 77.2628C64.3046 77.0366 64.3278 76.7409 64.206 76.4916L57.3 62.8766L71.5527 66.2862C71.5527 66.2862 74.1041 62.7897 74.1041 62.7839C74.1853 62.6853 74.2374 62.5693 74.2606 62.4418L76.6786 47.3714L77.4092 41.9556L71.5295 42.7848C71.2744 42.8775 71.0946 43.1037 71.0599 43.3704L68.6941 59.5483L54.6848 56.5562C54.3949 56.5099 54.1108 56.6374 53.9484 56.881L50.4345 62.1924C50.2837 62.4186 50.2721 62.7027 50.3997 62.9462Z" fill="url(#paint2_radial_382_782)"/>
<path d="M106.524 77.4541L96.3993 58.1682L92.7811 63.1375C92.6187 63.3637 92.5955 63.6594 92.7173 63.9088L99.6233 77.5237L85.3705 74.1142C85.3705 74.1142 82.8192 77.6107 82.8192 77.6165C82.738 77.715 82.6858 77.831 82.6626 77.9586L80.2447 93.0289L79.514 98.4448L85.3937 97.6156C85.6489 97.5228 85.8286 97.2967 85.8634 97.0299L88.2292 80.852L102.238 83.8441C102.528 83.8905 102.813 83.7629 102.975 83.5194L106.483 78.1963C106.634 77.9702 106.645 77.686 106.518 77.4425L106.524 77.4541Z" fill="url(#paint3_radial_382_782)"/>
</g>
<defs>
<filter id="filter0_d_382_782" x="0.735668" y="0.867834" width="155.446" height="156.755" filterUnits="userSpaceOnUse" color-interpolation-filters="sRGB">
<feFlood flood-opacity="0" result="BackgroundImageFix"/>
<feColorMatrix in="SourceAlpha" type="matrix" values="0 0 0 0 0 0 0 0 0 0 0 0 0 0 0 0 0 0 127 0" result="hardAlpha"/>
<feOffset dy="9.13217"/>
<feGaussianBlur stdDeviation="9.13217"/>
<feComposite in2="hardAlpha" operator="out"/>
<feColorMatrix type="matrix" values="0 0 0 0 0 0 0 0 0 0 0 0 0 0 0 0 0 0 0.16 0"/>
<feBlend mode="normal" in2="BackgroundImageFix" result="effect1_dropShadow_382_782"/>
<feBlend mode="normal" in="SourceGraphic" in2="effect1_dropShadow_382_782" result="shape"/>
</filter>
<linearGradient id="paint0_linear_382_782" x1="19" y1="70.7738" x2="137.918" y2="70.7738" gradientUnits="userSpaceOnUse">
<stop stop-color="#6828EB"/>
<stop offset="1" stop-color="#FFAB28"/>
</linearGradient>
<radialGradient id="paint1_radial_382_782" cx="0" cy="0" r="1" gradientUnits="userSpaceOnUse" gradientTransform="translate(78.4586 70.1133) scale(25.067 25.067)">
<stop/>
<stop offset="0.11" stop-color="#020105"/>
<stop offset="0.24" stop-color="#0B0415"/>
<stop offset="0.39" stop-color="#180A30"/>
<stop offset="0.56" stop-color="#2B1255"/>
<stop offset="0.73" stop-color="#441C84"/>
<stop offset="0.91" stop-color="#6129BD"/>
<stop offset="1" stop-color="#7230DD"/>
</radialGradient>
<radialGradient id="paint2_radial_382_782" cx="0" cy="0" r="1" gradientUnits="userSpaceOnUse" gradientTransform="translate(61.2777 79.9359) scale(44.8168 44.8168)">
<stop stop-color="#7130DC"/>
<stop offset="0.06" stop-color="#6E2FD7"/>
<stop offset="0.13" stop-color="#682CCB"/>
<stop offset="0.2" stop-color="#5D27B6"/>
<stop offset="0.27" stop-color="#4E2199"/>
<stop offset="0.34" stop-color="#3B1974"/>
<stop offset="0.41" stop-color="#240F46"/>
<stop offset="0.48" stop-color="#080310"/>
<stop offset="0.5"/>
<stop offset="0.55" stop-color="#322108"/>
<stop offset="0.62" stop-color="#684510"/>
<stop offset="0.68" stop-color="#956418"/>
<stop offset="0.75" stop-color="#BB7D1E"/>
<stop offset="0.81" stop-color="#D89022"/>
<stop offset="0.88" stop-color="#ED9E26"/>
<stop offset="0.94" stop-color="#F9A728"/>
<stop offset="1" stop-color="#FEAA29"/>
</radialGradient>
<radialGradient id="paint3_radial_382_782" cx="0" cy="0" r="1" gradientUnits="userSpaceOnUse" gradientTransform="translate(95.6455 60.4644) rotate(-180) scale(44.8168 44.8168)">
<stop stop-color="#7130DC"/>
<stop offset="0.06" stop-color="#6E2FD7"/>
<stop offset="0.13" stop-color="#682CCB"/>
<stop offset="0.2" stop-color="#5D27B6"/>
<stop offset="0.27" stop-color="#4E2199"/>
<stop offset="0.34" stop-color="#3B1974"/>
<stop offset="0.41" stop-color="#240F46"/>
<stop offset="0.48" stop-color="#080310"/>
<stop offset="0.5"/>
<stop offset="0.55" stop-color="#322108"/>
<stop offset="0.62" stop-color="#684510"/>
<stop offset="0.68" stop-color="#956418"/>
<stop offset="0.75" stop-color="#BB7D1E"/>
<stop offset="0.81" stop-color="#D89022"/>
<stop offset="0.88" stop-color="#ED9E26"/>
<stop offset="0.94" stop-color="#F9A728"/>
<stop offset="1" stop-color="#FEAA29"/>
</radialGradient>
</defs>
</svg>
